<svg width="85" height="98" viewBox="0 0 85 98" fill="none" xmlns="http://www.w3.org/2000/svg">
<g clip-path="url(#clip0_186_6982)">
<path d="M70.3556 10.6494H13.9443V67.0656H70.3556V10.6494Z" fill="#FBFAF8"/>
<path d="M10.1728 31.2554L22.0255 31.6072C22.0762 31.6072 22.1269 31.6199 22.1776 31.6358L26.3387 33.1761C26.7634 33.3314 27.1374 32.8687 26.868 32.5232L24.0316 28.9069C22.9224 27.4933 22.1142 25.8864 21.6547 24.178L20.406 19.5348C20.3046 19.1608 20.7388 18.8629 21.0842 19.0657C22.2663 19.7567 23.8192 20.5173 25.0552 20.4096C25.3626 20.3842 25.5591 20.0863 25.4387 19.8137C22.1174 12.3655 32.6042 9.70318 31.9799 3.93795C31.8024 2.293 38.6193 11.5003 38.933 9.87433C40.4257 2.18207 44.3206 11.3798 46.9669 13.6618C47.6451 14.245 48.1965 14.9518 48.5578 15.7473C49.217 17.2148 49.6258 19.0435 49.6924 20.3874C49.705 20.6283 49.9237 20.8121 50.1772 20.7962C55.2796 20.473 56.1036 17.256 56.4174 13.1262C56.4459 12.7458 56.9434 12.5905 57.2128 12.8726C62.4863 18.4382 52.3545 30.1746 57.0448 27.693C59.1365 26.5868 61.3771 25.7438 63.7223 25.2715C63.7255 25.2715 63.7318 25.2715 63.735 25.2715C64.0709 25.2049 64.3593 25.506 64.2484 25.8167L62.1472 31.7752C62.1314 31.8196 62.1092 31.864 62.0775 31.902C59.539 35.1126 56.7343 36.1586 53.0137 38.0697C52.9091 38.1236 52.833 38.2124 52.795 38.3201C51.9108 40.973 48.3423 46.4751 46.7038 48.7159C46.6626 48.773 46.6088 48.8173 46.5422 48.849C45.9496 49.1406 42.8501 50.6556 42.042 51.0518C41.9184 51.112 41.8328 51.223 41.8075 51.3497C40.9296 55.7141 44.552 51.616 46.501 51.3878C46.5422 51.3814 46.5802 51.3878 46.6214 51.3909C48.1458 51.616 50.3008 51.3497 52.1358 50.7634C54.3986 50.0408 56.8103 49.8252 59.1809 50.0946L60.1918 50.2087C65.1326 51.2388 68.2986 51.5019 73.7939 53.3718C78.4843 54.9692 55.2479 59.4825 51.5368 59.1434C51.4227 59.1339 51.3182 59.08 51.2421 58.9976C50.4878 58.1831 47.6197 55.9391 46.9827 54.5889C46.8655 54.3417 46.5485 54.2466 46.314 54.4019C45.7689 54.7537 45.0939 55.0168 44.4442 55.0263C44.0703 55.0326 43.8579 55.432 44.0861 55.7141C45.7563 57.7584 51.784 61.6188 52.7696 62.1068C55.0514 63.2003 56.3254 63.774 57.7516 65.7137C57.7769 65.7517 57.7991 65.7897 57.815 65.8341C57.9354 66.1954 58.5217 67.9735 58.6073 68.2366C58.6136 68.2587 58.6231 68.2809 58.6358 68.3L60.9461 72.6484C61.1838 73.0922 60.5626 73.4979 60.2077 73.1302L50.0727 62.6298C49.4547 61.9896 48.7384 61.4444 47.9493 61.0071C44.6154 59.1719 39.9884 55.2482 37.6305 52.6492C37.4023 52.3988 37.3389 52.0597 37.4182 51.7396C37.7256 50.475 34.9937 51.7396 34.0462 51.7332C33.9257 51.7332 33.8148 51.6794 33.7356 51.597C31.0481 48.8237 25.0806 44.6305 21.3536 43.4895L18.7169 42.7193C14.9709 41.6259 12.1535 38.7195 11.2345 35.1126C10.9144 33.8607 10.4707 32.7197 9.80198 31.9495C9.55479 31.6643 9.7798 31.2428 10.1664 31.2523L10.1728 31.2554Z" fill="#45452D"/>
<path d="M14.2752 74.376L14.5502 74.398L14.4402 79.744C14.4328 80.1254 14.5025 80.4077 14.6492 80.591C14.7958 80.7744 15.0342 80.866 15.3642 80.866C15.3862 80.866 15.3972 80.888 15.3972 80.932C15.3972 80.976 15.3862 80.998 15.3642 80.998C15.1662 80.998 15.0122 80.9944 14.9022 80.987L14.2972 80.976L13.6922 80.987C13.5895 80.9944 13.4392 80.998 13.2412 80.998C13.2265 80.998 13.2192 80.976 13.2192 80.932C13.2192 80.888 13.2265 80.866 13.2412 80.866C13.8498 80.866 14.1578 80.492 14.1652 79.744L14.2752 74.376ZM21.8652 80.866C21.8798 80.866 21.8872 80.888 21.8872 80.932C21.8872 80.976 21.8798 80.998 21.8652 80.998C21.6232 80.998 21.4325 80.9944 21.2932 80.987L20.5232 80.976L19.7862 80.987C19.6615 80.9944 19.4892 80.998 19.2692 80.998C19.2545 80.998 19.2472 80.976 19.2472 80.932C19.2472 80.888 19.2545 80.866 19.2692 80.866C19.5185 80.866 19.7018 80.8477 19.8192 80.811C19.9365 80.767 20.0135 80.6937 20.0502 80.591C20.0868 80.4884 20.0978 80.327 20.0832 80.107L19.8632 74.926L20.2922 74.31L17.4432 80.921C17.4285 80.9504 17.3992 80.965 17.3552 80.965C17.3112 80.965 17.2818 80.9504 17.2672 80.921L14.3962 75.036C14.2642 74.7647 14.1102 74.5667 13.9342 74.442C13.7582 74.3174 13.5528 74.255 13.3182 74.255C13.3035 74.255 13.2962 74.233 13.2962 74.189C13.2962 74.145 13.3035 74.123 13.3182 74.123L13.7582 74.134C13.8462 74.1414 13.9598 74.145 14.0992 74.145C14.2605 74.145 14.3925 74.1414 14.4952 74.134C14.5978 74.1267 14.6785 74.123 14.7372 74.123C14.8325 74.123 14.9095 74.156 14.9682 74.222C15.0268 74.288 15.1185 74.4457 15.2432 74.695L17.7402 79.766L17.3332 80.47L19.9842 74.398C20.0575 74.2147 20.1675 74.123 20.3142 74.123C20.3582 74.123 20.4168 74.1267 20.4902 74.134C20.5635 74.1414 20.6588 74.145 20.7762 74.145L21.3372 74.134C21.4252 74.1267 21.5535 74.123 21.7222 74.123C21.7368 74.123 21.7442 74.145 21.7442 74.189C21.7442 74.233 21.7368 74.255 21.7222 74.255C21.3555 74.255 21.0952 74.3137 20.9412 74.431C20.7872 74.5484 20.7138 74.7537 20.7212 75.047L20.9522 80.107C20.9668 80.3344 20.9962 80.4994 21.0402 80.602C21.0842 80.7047 21.1648 80.7744 21.2822 80.811C21.4068 80.8477 21.6012 80.866 21.8652 80.866ZM24.6459 77.214H26.9119L26.9889 77.467H24.4809L24.6459 77.214ZM29.8599 80.866C29.8966 80.866 29.9149 80.888 29.9149 80.932C29.9149 80.976 29.8966 80.998 29.8599 80.998C29.7206 80.998 29.5043 80.9907 29.2109 80.976C28.9029 80.9614 28.6829 80.954 28.5509 80.954C28.3823 80.954 28.1733 80.9614 27.9239 80.976C27.6746 80.9907 27.4876 80.998 27.3629 80.998C27.3336 80.998 27.3189 80.976 27.3189 80.932C27.3189 80.888 27.3336 80.866 27.3629 80.866C27.6123 80.866 27.7919 80.844 27.9019 80.8C28.0119 80.7487 28.0669 80.6607 28.0669 80.536C28.0669 80.4114 28.0119 80.239 27.9019 80.019L25.5369 75.102L25.8889 74.574L23.7439 79.546C23.6413 79.7954 23.5899 80.0007 23.5899 80.162C23.5899 80.3967 23.6816 80.5727 23.8649 80.69C24.0483 80.8074 24.3123 80.866 24.6569 80.866C24.6936 80.866 24.7119 80.888 24.7119 80.932C24.7119 80.976 24.6936 80.998 24.6569 80.998C24.5249 80.998 24.3343 80.9907 24.0849 80.976C23.8063 80.9614 23.5643 80.954 23.3589 80.954C23.1683 80.954 22.9409 80.9614 22.6769 80.976C22.4423 80.9907 22.2516 80.998 22.1049 80.998C22.0756 80.998 22.0609 80.976 22.0609 80.932C22.0609 80.888 22.0756 80.866 22.1049 80.866C22.3103 80.866 22.4826 80.8257 22.6219 80.745C22.7686 80.6644 22.9079 80.525 23.0399 80.327C23.1719 80.129 23.3223 79.8357 23.4909 79.447L25.8339 74.046C25.8413 74.024 25.8669 74.013 25.9109 74.013C25.9549 74.0057 25.9806 74.0167 25.9879 74.046L28.6279 79.491C28.8846 80.0264 29.0973 80.3894 29.2659 80.58C29.4419 80.7707 29.6399 80.866 29.8599 80.866ZM34.2196 81.13C33.4203 81.13 32.7236 80.976 32.1296 80.668C31.5356 80.36 31.0809 79.942 30.7656 79.414C30.4503 78.886 30.2926 78.2957 30.2926 77.643C30.2926 76.9317 30.4723 76.301 30.8316 75.751C31.1983 75.201 31.6969 74.772 32.3276 74.464C32.9656 74.156 33.6806 74.002 34.4726 74.002C34.8246 74.002 35.1656 74.035 35.4956 74.101C35.8329 74.167 36.1079 74.255 36.3206 74.365C36.3793 74.4017 36.416 74.4347 36.4306 74.464C36.4453 74.4934 36.4563 74.5447 36.4636 74.618L36.6066 75.938C36.6066 75.96 36.5846 75.9747 36.5406 75.982C36.504 75.9894 36.482 75.9784 36.4746 75.949C36.2839 75.4064 35.9723 74.992 35.5396 74.706C35.1069 74.4127 34.5899 74.266 33.9886 74.266C33.1159 74.266 32.4449 74.53 31.9756 75.058C31.5063 75.586 31.2716 76.312 31.2716 77.236C31.2716 77.9547 31.4109 78.5964 31.6896 79.161C31.9683 79.7184 32.3496 80.1547 32.8336 80.47C33.3249 80.7854 33.8786 80.943 34.4946 80.943C34.8466 80.943 35.1179 80.91 35.3086 80.844C35.4993 80.778 35.6386 80.6497 35.7266 80.459C35.8146 80.2684 35.8586 79.986 35.8586 79.612C35.8586 79.2307 35.8329 78.9667 35.7816 78.82C35.7376 78.666 35.635 78.5634 35.4736 78.512C35.3196 78.4607 35.0483 78.435 34.6596 78.435C34.6156 78.435 34.5936 78.4057 34.5936 78.347C34.5936 78.325 34.5973 78.3067 34.6046 78.292C34.6193 78.27 34.6339 78.259 34.6486 78.259C35.2353 78.2957 35.712 78.314 36.0786 78.314C36.4306 78.314 36.7973 78.303 37.1786 78.281C37.1933 78.281 37.2043 78.292 37.2116 78.314C37.2263 78.3287 37.2336 78.3434 37.2336 78.358C37.2336 78.4094 37.2153 78.435 37.1786 78.435C37.0173 78.4277 36.9036 78.4534 36.8376 78.512C36.7716 78.5634 36.7276 78.6734 36.7056 78.842C36.691 79.0107 36.6836 79.304 36.6836 79.722C36.6836 80.052 36.6946 80.2867 36.7166 80.426C36.7459 80.5654 36.7606 80.6534 36.7606 80.69C36.7606 80.734 36.7533 80.7634 36.7386 80.778C36.7239 80.7854 36.6873 80.8 36.6286 80.822C35.7339 81.0274 34.9309 81.13 34.2196 81.13ZM38.9696 74.376L39.2556 74.398V79.744C39.2556 80.1254 39.3253 80.4077 39.4646 80.591C39.6113 80.7744 39.8313 80.866 40.1246 80.866C40.1393 80.866 40.1466 80.888 40.1466 80.932C40.1466 80.976 40.1393 80.998 40.1246 80.998C39.934 80.998 39.7873 80.9944 39.6846 80.987L39.1236 80.976L38.5296 80.987C38.4196 80.9944 38.2583 80.998 38.0456 80.998C38.031 80.998 38.0236 80.976 38.0236 80.932C38.0236 80.888 38.031 80.866 38.0456 80.866C38.361 80.866 38.592 80.7744 38.7386 80.591C38.8926 80.4077 38.9696 80.1254 38.9696 79.744V74.376ZM44.5356 81.141C44.5356 81.1557 44.5173 81.1667 44.4806 81.174C44.4513 81.1814 44.4293 81.1777 44.4146 81.163L39.2336 75.025C38.9916 74.739 38.7753 74.541 38.5846 74.431C38.394 74.3137 38.2033 74.255 38.0126 74.255C37.998 74.255 37.9906 74.233 37.9906 74.189C37.9906 74.145 37.998 74.123 38.0126 74.123L38.4416 74.134C38.5296 74.1414 38.6543 74.145 38.8156 74.145L39.3766 74.134C39.45 74.1267 39.5343 74.123 39.6296 74.123C39.6883 74.123 39.7323 74.1377 39.7616 74.167C39.791 74.1964 39.835 74.255 39.8936 74.343L40.1576 74.695L44.4476 79.865L44.5356 81.141ZM44.5356 81.141L44.2606 80.8V75.388C44.2606 75.0067 44.191 74.7244 44.0516 74.541C43.9123 74.3504 43.696 74.255 43.4026 74.255C43.388 74.255 43.3806 74.233 43.3806 74.189C43.3806 74.145 43.388 74.123 43.4026 74.123L43.8426 74.134C44.0626 74.1487 44.2496 74.156 44.4036 74.156C44.5356 74.156 44.7263 74.1487 44.9756 74.134L45.4376 74.123C45.4523 74.123 45.4596 74.145 45.4596 74.189C45.4596 74.233 45.4523 74.255 45.4376 74.255C44.8363 74.255 44.5356 74.6327 44.5356 75.388V81.141ZM49.6888 81.13C49.0068 81.13 48.3981 80.9724 47.8628 80.657C47.3348 80.3344 46.9241 79.9017 46.6308 79.359C46.3448 78.809 46.2018 78.2114 46.2018 77.566C46.2018 76.8107 46.3925 76.1654 46.7738 75.63C47.1551 75.0874 47.6428 74.6804 48.2368 74.409C48.8381 74.1377 49.4505 74.002 50.0738 74.002C50.7705 74.002 51.3828 74.167 51.9108 74.497C52.4388 74.8197 52.8421 75.2487 53.1208 75.784C53.4068 76.3194 53.5498 76.8877 53.5498 77.489C53.5498 78.1564 53.3738 78.7687 53.0218 79.326C52.6698 79.8834 52.1968 80.3234 51.6028 80.646C51.0161 80.9687 50.3781 81.13 49.6888 81.13ZM50.0738 80.888C50.5431 80.888 50.9648 80.767 51.3388 80.525C51.7128 80.283 52.0061 79.931 52.2188 79.469C52.4388 78.9997 52.5488 78.4424 52.5488 77.797C52.5488 77.115 52.4278 76.5064 52.1858 75.971C51.9511 75.4357 51.6101 75.0177 51.1628 74.717C50.7228 74.4164 50.2095 74.266 49.6228 74.266C48.8601 74.266 48.2661 74.5264 47.8408 75.047C47.4155 75.5604 47.2028 76.2717 47.2028 77.181C47.2028 77.8777 47.3238 78.5084 47.5658 79.073C47.8078 79.6377 48.1451 80.0814 48.5778 80.404C49.0178 80.7267 49.5165 80.888 50.0738 80.888ZM56.2187 80.063C56.2187 80.2684 56.237 80.4187 56.2737 80.514C56.3177 80.602 56.3947 80.6644 56.5047 80.701C56.6147 80.7304 56.787 80.745 57.0217 80.745H57.9567C58.4187 80.745 58.8 80.6094 59.1007 80.338C59.4087 80.0594 59.614 79.6854 59.7167 79.216C59.7167 79.194 59.735 79.1867 59.7717 79.194C59.8157 79.194 59.8377 79.205 59.8377 79.227C59.7717 79.8724 59.7387 80.4077 59.7387 80.833C59.7387 80.8917 59.724 80.9357 59.6947 80.965C59.6727 80.987 59.6323 80.998 59.5737 80.998H54.4477C54.433 80.998 54.4257 80.976 54.4257 80.932C54.4257 80.888 54.433 80.866 54.4477 80.866C54.7117 80.866 54.906 80.8477 55.0307 80.811C55.1553 80.7744 55.2397 80.7047 55.2837 80.602C55.3277 80.492 55.3497 80.327 55.3497 80.107V75.014C55.3497 74.794 55.3277 74.6327 55.2837 74.53C55.2397 74.4274 55.1553 74.3577 55.0307 74.321C54.906 74.277 54.7117 74.255 54.4477 74.255C54.433 74.255 54.4257 74.233 54.4257 74.189C54.4257 74.145 54.433 74.123 54.4477 74.123L54.9977 74.134C55.3203 74.1487 55.5807 74.156 55.7787 74.156C55.9767 74.156 56.237 74.1487 56.5597 74.134L57.1097 74.123C57.1243 74.123 57.1317 74.145 57.1317 74.189C57.1317 74.233 57.1243 74.255 57.1097 74.255C56.8457 74.255 56.6513 74.277 56.5267 74.321C56.4093 74.3577 56.3287 74.431 56.2847 74.541C56.2407 74.6437 56.2187 74.805 56.2187 75.025V80.063ZM62.2809 80.107C62.2809 80.3344 62.2992 80.4994 62.3359 80.602C62.3799 80.7047 62.4605 80.7744 62.5779 80.811C62.7025 80.8477 62.9005 80.866 63.1719 80.866C63.1865 80.866 63.1939 80.888 63.1939 80.932C63.1939 80.976 63.1865 80.998 63.1719 80.998C62.9372 80.998 62.7539 80.9944 62.6219 80.987L61.8299 80.976L61.0599 80.987C60.9205 80.9944 60.7299 80.998 60.4879 80.998C60.4732 80.998 60.4659 80.976 60.4659 80.932C60.4659 80.888 60.4732 80.866 60.4879 80.866C60.7519 80.866 60.9462 80.8477 61.0709 80.811C61.1955 80.7744 61.2799 80.7047 61.3239 80.602C61.3752 80.492 61.4009 80.327 61.4009 80.107V75.014C61.4009 74.794 61.3752 74.6327 61.3239 74.53C61.2799 74.4274 61.1955 74.3577 61.0709 74.321C60.9462 74.277 60.7519 74.255 60.4879 74.255C60.4732 74.255 60.4659 74.233 60.4659 74.189C60.4659 74.145 60.4732 74.123 60.4879 74.123L61.0599 74.134C61.3825 74.1487 61.6392 74.156 61.8299 74.156C62.0425 74.156 62.3102 74.1487 62.6329 74.134L63.1719 74.123C63.1865 74.123 63.1939 74.145 63.1939 74.189C63.1939 74.233 63.1865 74.255 63.1719 74.255C62.9079 74.255 62.7135 74.277 62.5889 74.321C62.4715 74.365 62.3909 74.442 62.3469 74.552C62.3029 74.6547 62.2809 74.816 62.2809 75.036V80.107ZM66.2074 77.214H68.4734L68.5504 77.467H66.0424L66.2074 77.214ZM71.4214 80.866C71.4581 80.866 71.4764 80.888 71.4764 80.932C71.4764 80.976 71.4581 80.998 71.4214 80.998C71.2821 80.998 71.0658 80.9907 70.7724 80.976C70.4644 80.9614 70.2444 80.954 70.1124 80.954C69.9438 80.954 69.7348 80.9614 69.4854 80.976C69.2361 80.9907 69.0491 80.998 68.9244 80.998C68.8951 80.998 68.8804 80.976 68.8804 80.932C68.8804 80.888 68.8951 80.866 68.9244 80.866C69.1738 80.866 69.3534 80.844 69.4634 80.8C69.5734 80.7487 69.6284 80.6607 69.6284 80.536C69.6284 80.4114 69.5734 80.239 69.4634 80.019L67.0984 75.102L67.4504 74.574L65.3054 79.546C65.2028 79.7954 65.1514 80.0007 65.1514 80.162C65.1514 80.3967 65.2431 80.5727 65.4264 80.69C65.6098 80.8074 65.8738 80.866 66.2184 80.866C66.2551 80.866 66.2734 80.888 66.2734 80.932C66.2734 80.976 66.2551 80.998 66.2184 80.998C66.0864 80.998 65.8958 80.9907 65.6464 80.976C65.3678 80.9614 65.1258 80.954 64.9204 80.954C64.7298 80.954 64.5024 80.9614 64.2384 80.976C64.0038 80.9907 63.8131 80.998 63.6664 80.998C63.6371 80.998 63.6224 80.976 63.6224 80.932C63.6224 80.888 63.6371 80.866 63.6664 80.866C63.8718 80.866 64.0441 80.8257 64.1834 80.745C64.3301 80.6644 64.4694 80.525 64.6014 80.327C64.7334 80.129 64.8838 79.8357 65.0524 79.447L67.3954 74.046C67.4028 74.024 67.4284 74.013 67.4724 74.013C67.5164 74.0057 67.5421 74.0167 67.5494 74.046L70.1894 79.491C70.4461 80.0264 70.6588 80.3894 70.8274 80.58C71.0034 80.7707 71.2014 80.866 71.4214 80.866Z" fill="#FBFAF8"/>
<path d="M32.4058 88.2019C32.1058 88.2019 31.8478 88.1359 31.6318 88.0039C31.4198 87.8679 31.2598 87.6919 31.1518 87.4759C31.0438 87.2599 30.9898 87.0259 30.9898 86.7739C30.9898 86.4979 31.0558 86.2459 31.1878 86.0179C31.3238 85.7859 31.5058 85.6019 31.7338 85.4659C31.9618 85.3299 32.2098 85.2619 32.4778 85.2619C32.7658 85.2619 32.9838 85.3399 33.1318 85.4959C33.2798 85.6479 33.3538 85.8499 33.3538 86.1019C33.3538 86.1459 33.3478 86.1779 33.3358 86.1979C33.3278 86.2179 33.3098 86.2279 33.2818 86.2279H32.7838C32.7878 86.1959 32.7898 86.1499 32.7898 86.0899C32.7898 85.8659 32.7458 85.6959 32.6578 85.5799C32.5738 85.4599 32.4478 85.3999 32.2798 85.3999C32.0558 85.3999 31.8758 85.5039 31.7398 85.7119C31.6078 85.9159 31.5418 86.1899 31.5418 86.5339C31.5418 86.9699 31.6418 87.3219 31.8418 87.5899C32.0418 87.8539 32.3198 87.9859 32.6758 87.9859C32.7798 87.9859 32.8858 87.9719 32.9938 87.9439C33.1058 87.9119 33.2058 87.8659 33.2938 87.8059H33.2998C33.3118 87.8059 33.3218 87.8139 33.3298 87.8299C33.3418 87.8419 33.3438 87.8539 33.3358 87.8659C33.0518 88.0899 32.7418 88.2019 32.4058 88.2019ZM31.2958 86.1319L33.0118 86.1019V86.2279L31.3018 86.2339L31.2958 86.1319ZM34.2913 85.7779C34.2913 85.9419 34.3493 86.0739 34.4653 86.1739C34.5813 86.2739 34.7533 86.3839 34.9813 86.5039C35.1533 86.5919 35.2893 86.6699 35.3893 86.7379C35.4933 86.8059 35.5813 86.8919 35.6533 86.9959C35.7253 87.0999 35.7613 87.2219 35.7613 87.3619C35.7613 87.5179 35.7173 87.6599 35.6293 87.7879C35.5413 87.9159 35.4173 88.0179 35.2573 88.0939C35.0973 88.1659 34.9153 88.2019 34.7113 88.2019C34.5393 88.2019 34.3753 88.1799 34.2193 88.1359C34.0633 88.0959 33.9473 88.0459 33.8713 87.9859C33.8393 87.9699 33.8213 87.9279 33.8173 87.8599L33.7813 87.2119V87.2059C33.7813 87.1899 33.7913 87.1819 33.8113 87.1819C33.8313 87.1779 33.8453 87.1839 33.8533 87.1999C33.9613 87.4399 34.0973 87.6459 34.2613 87.8179C34.4253 87.9899 34.6093 88.0759 34.8133 88.0759C34.9373 88.0759 35.0433 88.0379 35.1313 87.9619C35.2193 87.8859 35.2633 87.7719 35.2633 87.6199C35.2633 87.4359 35.2013 87.2879 35.0773 87.1759C34.9573 87.0599 34.7793 86.9399 34.5433 86.8159C34.3833 86.7279 34.2553 86.6519 34.1593 86.5879C34.0673 86.5199 33.9873 86.4379 33.9193 86.3419C33.8553 86.2459 33.8233 86.1319 33.8233 85.9999C33.8233 85.7679 33.9193 85.5859 34.1113 85.4539C34.3073 85.3179 34.5433 85.2499 34.8193 85.2499C34.9393 85.2499 35.0613 85.2639 35.1853 85.2919C35.3133 85.3159 35.4213 85.3479 35.5093 85.3879C35.5453 85.4039 35.5693 85.4199 35.5813 85.4359C35.5933 85.4519 35.5993 85.4739 35.5993 85.5019L35.6113 86.0539C35.6113 86.0699 35.6013 86.0799 35.5813 86.0839C35.5613 86.0879 35.5473 86.0839 35.5393 86.0719C35.5153 85.9919 35.4673 85.8979 35.3953 85.7899C35.3273 85.6819 35.2333 85.5859 35.1133 85.5019C34.9973 85.4139 34.8653 85.3699 34.7173 85.3699C34.5773 85.3699 34.4713 85.4079 34.3993 85.4839C34.3273 85.5599 34.2913 85.6579 34.2913 85.7779ZM37.286 88.2019C37.05 88.2019 36.852 88.1379 36.692 88.0099C36.532 87.8819 36.452 87.6699 36.452 87.3739V85.8019C36.452 85.6819 36.43 85.6039 36.386 85.5679C36.346 85.5319 36.262 85.5139 36.134 85.5139C36.122 85.5139 36.116 85.4979 36.116 85.4659C36.116 85.4339 36.122 85.4179 36.134 85.4179C36.326 85.4179 36.49 85.3759 36.626 85.2919C36.762 85.2039 36.846 85.0899 36.878 84.9499C36.878 84.9379 36.89 84.9319 36.914 84.9319C36.926 84.9319 36.938 84.9359 36.95 84.9439C36.962 84.9479 36.968 84.9519 36.968 84.9559V87.2179C36.968 87.7179 37.16 87.9679 37.544 87.9679C37.756 87.9679 37.942 87.9139 38.102 87.8059L38.114 87.7999C38.13 87.7999 38.14 87.8079 38.144 87.8239C38.152 87.8399 38.15 87.8519 38.138 87.8599C37.974 87.9839 37.828 88.0719 37.7 88.1239C37.576 88.1759 37.438 88.2019 37.286 88.2019ZM37.958 85.6459C37.658 85.5739 37.272 85.5379 36.8 85.5379V85.3999C37.08 85.3999 37.472 85.3799 37.976 85.3399C37.988 85.3399 37.998 85.3539 38.006 85.3819C38.014 85.4059 38.018 85.4379 38.018 85.4779C38.018 85.5179 38.01 85.5579 37.994 85.5979C37.982 85.6339 37.97 85.6499 37.958 85.6459ZM39.8498 88.0579C40.2418 87.6539 40.5278 87.3499 40.7078 87.1459C40.8918 86.9379 41.0398 86.7379 41.1518 86.5459C41.2678 86.3499 41.3258 86.1659 41.3258 85.9939C41.3258 85.8299 41.2778 85.6899 41.1818 85.5739C41.0858 85.4539 40.9498 85.3939 40.7738 85.3939C40.5898 85.3939 40.4358 85.4619 40.3118 85.5979C40.1918 85.7339 40.0818 85.9319 39.9818 86.1919C39.9818 86.1999 39.9738 86.2039 39.9578 86.2039C39.9458 86.2039 39.9338 86.2019 39.9218 86.1979C39.9098 86.1899 39.9058 86.1839 39.9098 86.1799L40.1618 85.1899C40.1658 85.1819 40.1778 85.1799 40.1978 85.1839C40.2218 85.1879 40.2318 85.1939 40.2278 85.2019C40.2238 85.2219 40.2218 85.2459 40.2218 85.2739C40.2218 85.3459 40.2538 85.3819 40.3178 85.3819C40.3658 85.3819 40.4318 85.3659 40.5158 85.3339C40.6278 85.3019 40.7178 85.2799 40.7858 85.2679C40.8578 85.2519 40.9398 85.2439 41.0318 85.2439C41.2878 85.2439 41.4938 85.3139 41.6498 85.4539C41.8058 85.5899 41.8838 85.7679 41.8838 85.9879C41.8838 86.1239 41.8518 86.2499 41.7878 86.3659C41.7238 86.4779 41.6398 86.5819 41.5358 86.6779C41.4358 86.7739 41.2898 86.9019 41.0978 87.0619C40.8098 87.2939 40.5778 87.4979 40.4018 87.6739C40.3898 87.6859 40.3858 87.6959 40.3898 87.7039C40.3978 87.7119 40.4098 87.7159 40.4258 87.7159C40.9578 87.7159 41.3238 87.7099 41.5238 87.6979C41.7278 87.6859 41.8658 87.6579 41.9378 87.6139C42.0098 87.5699 42.0618 87.4919 42.0938 87.3799C42.0978 87.3679 42.1098 87.3639 42.1298 87.3679C42.1498 87.3719 42.1598 87.3779 42.1598 87.3859L42.0938 88.0639C42.0938 88.0799 42.0878 88.0959 42.0758 88.1119C42.0678 88.1239 42.0558 88.1299 42.0398 88.1299H39.8918C39.8718 88.1299 39.8558 88.1219 39.8438 88.1059C39.8358 88.0899 39.8378 88.0739 39.8498 88.0579ZM43.9791 88.2079C43.7031 88.2079 43.4571 88.1459 43.2411 88.0219C43.0251 87.8939 42.8551 87.7179 42.7311 87.4939C42.6111 87.2659 42.5511 87.0059 42.5511 86.7139C42.5511 86.4299 42.6111 86.1779 42.7311 85.9579C42.8551 85.7379 43.0251 85.5679 43.2411 85.4479C43.4611 85.3239 43.7091 85.2619 43.9851 85.2619C44.2571 85.2619 44.4991 85.3239 44.7111 85.4479C44.9271 85.5719 45.0931 85.7459 45.2091 85.9699C45.3291 86.1899 45.3891 86.4439 45.3891 86.7319C45.3891 87.0199 45.3291 87.2759 45.2091 87.4999C45.0891 87.7239 44.9211 87.8979 44.7051 88.0219C44.4931 88.1459 44.2511 88.2079 43.9791 88.2079ZM44.0511 88.0939C44.2951 88.0939 44.4751 87.9799 44.5911 87.7519C44.7111 87.5239 44.7711 87.2079 44.7711 86.8039C44.7711 86.4879 44.7331 86.2219 44.6571 86.0059C44.5811 85.7899 44.4771 85.6299 44.3451 85.5259C44.2171 85.4219 44.0751 85.3699 43.9191 85.3699C43.6791 85.3699 43.4911 85.4899 43.3551 85.7299C43.2191 85.9699 43.1511 86.2839 43.1511 86.6719C43.1511 86.9479 43.1871 87.1939 43.2591 87.4099C43.3351 87.6219 43.4411 87.7899 43.5771 87.9139C43.7131 88.0339 43.8711 88.0939 44.0511 88.0939ZM45.8263 88.0579C46.2183 87.6539 46.5043 87.3499 46.6843 87.1459C46.8683 86.9379 47.0163 86.7379 47.1283 86.5459C47.2443 86.3499 47.3023 86.1659 47.3023 85.9939C47.3023 85.8299 47.2543 85.6899 47.1583 85.5739C47.0623 85.4539 46.9263 85.3939 46.7503 85.3939C46.5663 85.3939 46.4123 85.4619 46.2883 85.5979C46.1683 85.7339 46.0583 85.9319 45.9583 86.1919C45.9583 86.1999 45.9503 86.2039 45.9343 86.2039C45.9223 86.2039 45.9103 86.2019 45.8983 86.1979C45.8863 86.1899 45.8823 86.1839 45.8863 86.1799L46.1383 85.1899C46.1423 85.1819 46.1543 85.1799 46.1743 85.1839C46.1983 85.1879 46.2083 85.1939 46.2043 85.2019C46.2003 85.2219 46.1983 85.2459 46.1983 85.2739C46.1983 85.3459 46.2303 85.3819 46.2943 85.3819C46.3423 85.3819 46.4083 85.3659 46.4923 85.3339C46.6043 85.3019 46.6943 85.2799 46.7623 85.2679C46.8343 85.2519 46.9163 85.2439 47.0083 85.2439C47.2643 85.2439 47.4703 85.3139 47.6263 85.4539C47.7823 85.5899 47.8603 85.7679 47.8603 85.9879C47.8603 86.1239 47.8283 86.2499 47.7643 86.3659C47.7003 86.4779 47.6163 86.5819 47.5123 86.6779C47.4123 86.7739 47.2663 86.9019 47.0743 87.0619C46.7863 87.2939 46.5543 87.4979 46.3783 87.6739C46.3663 87.6859 46.3623 87.6959 46.3663 87.7039C46.3743 87.7119 46.3863 87.7159 46.4023 87.7159C46.9343 87.7159 47.3003 87.7099 47.5003 87.6979C47.7043 87.6859 47.8423 87.6579 47.9143 87.6139C47.9863 87.5699 48.0383 87.4919 48.0703 87.3799C48.0743 87.3679 48.0863 87.3639 48.1063 87.3679C48.1263 87.3719 48.1363 87.3779 48.1363 87.3859L48.0703 88.0639C48.0703 88.0799 48.0643 88.0959 48.0523 88.1119C48.0443 88.1239 48.0323 88.1299 48.0163 88.1299H45.8683C45.8483 88.1299 45.8323 88.1219 45.8203 88.1059C45.8123 88.0899 45.8143 88.0739 45.8263 88.0579ZM48.4377 88.0819C48.4177 88.0819 48.4037 88.0739 48.3957 88.0579C48.3877 88.0419 48.3877 88.0259 48.3957 88.0099L50.4057 85.2559C50.4137 85.2479 50.4277 85.2439 50.4477 85.2439C50.4837 85.2439 50.5017 85.2579 50.5017 85.2859V88.9279C50.5017 88.9679 50.4857 88.9959 50.4537 89.0119L50.0577 89.2039C50.0337 89.2119 50.0217 89.2159 50.0217 89.2159C50.0097 89.2159 50.0037 89.1999 50.0037 89.1679V85.9879L50.3757 85.6099L48.7437 87.8419C48.7277 87.8699 48.7377 87.8839 48.7737 87.8839C49.5177 87.8839 50.2397 87.8719 50.9397 87.8479C50.9557 87.8479 50.9637 87.8879 50.9637 87.9679C50.9637 88.0079 50.9597 88.0439 50.9517 88.0759C50.9477 88.1079 50.9417 88.1239 50.9337 88.1239C50.6217 88.1079 50.2857 88.0979 49.9257 88.0939C49.5697 88.0859 49.0737 88.0819 48.4377 88.0819Z" fill="#FBFAF8"/>
</g>
<defs>
<clipPath id="clip0_186_6982">
<rect width="84.3" height="96.9851" fill="white" transform="translate(0 0.507324)"/>
</clipPath>
</defs>
</svg>
