<svg width="66" height="88" viewBox="0 0 66 88" fill="none" xmlns="http://www.w3.org/2000/svg">
<g clip-path="url(#clip0_112_500)">
<path d="M61.3556 7.14224H4.94434V63.5584H61.3556V7.14224Z" fill="#FBFAF8"/>
<path d="M1.17278 27.748L13.0255 28.0999C13.0762 28.0999 13.1269 28.1125 13.1776 28.1284L17.3387 29.6687C17.7634 29.824 18.1374 29.3613 17.868 29.0158L15.0316 25.3995C13.9224 23.9859 13.1142 22.379 12.6547 20.6707L11.406 16.0274C11.3046 15.6534 11.7388 15.3555 12.0842 15.5583C13.2663 16.2493 14.8192 17.01 16.0552 16.9022C16.3626 16.8768 16.5591 16.5789 16.4387 16.3063C13.1174 8.85813 23.6042 6.19579 22.9799 0.430562C22.8024 -1.21438 29.6193 7.99287 29.933 6.36694C31.4257 -1.32531 35.3206 7.87243 37.9669 10.1544C38.6451 10.7376 39.1965 11.4444 39.5578 12.2399C40.217 13.7074 40.6258 15.5362 40.6924 16.88C40.705 17.1209 40.9237 17.3047 41.1772 17.2889C46.2796 16.9656 47.1036 13.7486 47.4174 9.6188C47.4459 9.23846 47.9434 9.08316 48.2128 9.36524C53.4863 14.9308 43.3545 26.6673 48.0448 24.1856C50.1365 23.0794 52.3771 22.2364 54.7223 21.7641C54.7255 21.7641 54.7318 21.7641 54.735 21.7641C55.0709 21.6976 55.3593 21.9987 55.2484 22.3093L53.1472 28.2678C53.1314 28.3122 53.1092 28.3566 53.0775 28.3946C50.539 31.6053 47.7343 32.6512 44.0137 34.5624C43.9091 34.6162 43.833 34.705 43.795 34.8127C42.9108 37.4656 39.3423 42.9677 37.7038 45.2085C37.6626 45.2656 37.6088 45.31 37.5422 45.3417C36.9496 45.6332 33.8501 47.1482 33.042 47.5444C32.9184 47.6046 32.8328 47.7156 32.8075 47.8424C31.9296 52.2067 35.552 48.1086 37.501 47.8804C37.5422 47.874 37.5802 47.8804 37.6214 47.8836C39.1458 48.1086 41.3008 47.8424 43.1358 47.256C45.3986 46.5334 47.8103 46.3178 50.1809 46.5872L51.1918 46.7013C56.1326 47.7314 59.2986 47.9945 64.7939 49.8645C69.4843 51.4619 46.2479 55.9752 42.5368 55.636C42.4227 55.6265 42.3182 55.5726 42.2421 55.4902C41.4878 54.6757 38.6197 52.4317 37.9827 51.0815C37.8655 50.8343 37.5485 50.7392 37.314 50.8945C36.7689 51.2463 36.0939 51.5094 35.4442 51.5189C35.0703 51.5253 34.8579 51.9246 35.0861 52.2067C36.7563 54.251 42.784 58.1114 43.7696 58.5995C46.0514 59.6929 47.3254 60.2666 48.7516 62.2063C48.7769 62.2443 48.7991 62.2824 48.815 62.3267C48.9354 62.6881 49.5217 64.4661 49.6073 64.7292C49.6136 64.7514 49.6231 64.7735 49.6358 64.7926L51.9461 69.1411C52.1838 69.5848 51.5626 69.9905 51.2077 69.6228L41.0727 59.1224C40.4547 58.4822 39.7384 57.937 38.9493 57.4997C35.6154 55.6646 30.9884 51.7408 28.6305 49.1418C28.4023 48.8914 28.3389 48.5523 28.4182 48.2322C28.7256 46.9676 25.9937 48.2322 25.0462 48.2259C24.9257 48.2259 24.8148 48.172 24.7356 48.0896C22.0481 45.3163 16.0806 41.1231 12.3536 39.9821L9.71687 39.2119C5.97091 38.1185 3.15351 35.2121 2.23445 31.6053C1.91436 30.3533 1.47068 29.2123 0.801984 28.4422C0.554788 28.1569 0.7798 27.7354 1.16644 27.7449L1.17278 27.748Z" fill="#45452D"/>
<path d="M5.42542 70.8688L5.68942 70.8908L5.57942 76.2918C5.57209 76.6805 5.63809 76.9555 5.77742 77.1168C5.91676 77.2782 6.16242 77.3588 6.51442 77.3588C6.52909 77.3588 6.53642 77.3808 6.53642 77.4248C6.53642 77.4688 6.52909 77.4908 6.51442 77.4908C6.30909 77.4908 6.15142 77.4872 6.04142 77.4798L5.44742 77.4688L4.87542 77.4798C4.77276 77.4872 4.62609 77.4908 4.43542 77.4908C4.42076 77.4908 4.41342 77.4688 4.41342 77.4248C4.41342 77.3808 4.42076 77.3588 4.43542 77.3588C4.74342 77.3588 4.96342 77.2782 5.09542 77.1168C5.23476 76.9482 5.30809 76.6732 5.31542 76.2918L5.42542 70.8688ZM12.9384 77.3588C12.9604 77.3588 12.9714 77.3808 12.9714 77.4248C12.9714 77.4688 12.9604 77.4908 12.9384 77.4908C12.7111 77.4908 12.5314 77.4872 12.3994 77.4798L11.6404 77.4688L10.9364 77.4798C10.8191 77.4872 10.6541 77.4908 10.4414 77.4908C10.4268 77.4908 10.4194 77.4688 10.4194 77.4248C10.4194 77.3808 10.4268 77.3588 10.4414 77.3588C10.6908 77.3588 10.8741 77.3405 10.9914 77.3038C11.1161 77.2598 11.1968 77.1865 11.2334 77.0838C11.2774 76.9812 11.2921 76.8198 11.2774 76.5998L11.0684 71.2868L11.4314 70.7808L8.57142 77.4138C8.55676 77.4432 8.52742 77.4578 8.48342 77.4578C8.44676 77.4578 8.41376 77.4432 8.38442 77.4138L5.62342 71.5288C5.49876 71.2575 5.34476 71.0595 5.16142 70.9348C4.98542 70.8102 4.76909 70.7478 4.51242 70.7478C4.49776 70.7478 4.49042 70.7258 4.49042 70.6818C4.49042 70.6378 4.49776 70.6158 4.51242 70.6158L4.91942 70.6268C4.99276 70.6342 5.09542 70.6378 5.22742 70.6378C5.35942 70.6378 5.46942 70.6342 5.55742 70.6268C5.65276 70.6195 5.72609 70.6158 5.77742 70.6158C5.87276 70.6158 5.94976 70.6525 6.00842 70.7258C6.07442 70.7918 6.16609 70.9458 6.28342 71.1878L8.79142 76.4678L8.45042 77.0398L11.1344 70.8908C11.2151 70.7075 11.3251 70.6158 11.4644 70.6158C11.5011 70.6158 11.5524 70.6195 11.6184 70.6268C11.6918 70.6342 11.7871 70.6378 11.9044 70.6378L12.4214 70.6268C12.5021 70.6195 12.6231 70.6158 12.7844 70.6158C12.7991 70.6158 12.8064 70.6378 12.8064 70.6818C12.8064 70.7258 12.7991 70.7478 12.7844 70.7478C12.4104 70.7478 12.1428 70.8028 11.9814 70.9128C11.8274 71.0155 11.7578 71.2135 11.7724 71.5068L11.9924 76.5998C11.9998 76.8272 12.0254 76.9922 12.0694 77.0948C12.1208 77.1975 12.2088 77.2672 12.3334 77.3038C12.4581 77.3405 12.6598 77.3588 12.9384 77.3588ZM15.699 73.6188H17.965L18.042 73.8498H15.534L15.699 73.6188ZM20.88 77.3588C20.9093 77.3588 20.924 77.3808 20.924 77.4248C20.924 77.4688 20.9093 77.4908 20.88 77.4908C20.7407 77.4908 20.5243 77.4835 20.231 77.4688C19.9377 77.4542 19.725 77.4468 19.593 77.4468C19.4317 77.4468 19.2263 77.4542 18.977 77.4688C18.7423 77.4835 18.5627 77.4908 18.438 77.4908C18.4087 77.4908 18.394 77.4688 18.394 77.4248C18.394 77.3808 18.4087 77.3588 18.438 77.3588C18.7167 77.3588 18.9147 77.3332 19.032 77.2818C19.1567 77.2305 19.219 77.1388 19.219 77.0068C19.219 76.8968 19.175 76.7428 19.087 76.5448L16.645 71.3858L16.92 71.0448L14.786 76.0938C14.6833 76.3432 14.632 76.5485 14.632 76.7098C14.632 77.1425 14.9913 77.3588 15.71 77.3588C15.7467 77.3588 15.765 77.3808 15.765 77.4248C15.765 77.4688 15.7467 77.4908 15.71 77.4908C15.578 77.4908 15.3873 77.4835 15.138 77.4688C14.8593 77.4542 14.6173 77.4468 14.412 77.4468C14.2213 77.4468 14.0013 77.4542 13.752 77.4688C13.532 77.4835 13.3487 77.4908 13.202 77.4908C13.1653 77.4908 13.147 77.4688 13.147 77.4248C13.147 77.3808 13.1653 77.3588 13.202 77.3588C13.4073 77.3588 13.5797 77.3222 13.719 77.2488C13.8657 77.1682 14.0013 77.0325 14.126 76.8418C14.258 76.6438 14.401 76.3615 14.555 75.9948L16.876 70.5168C16.8907 70.4948 16.9163 70.4838 16.953 70.4838C16.9897 70.4838 17.0117 70.4948 17.019 70.5168L19.615 75.9838C19.8643 76.5265 20.077 76.8932 20.253 77.0838C20.429 77.2672 20.638 77.3588 20.88 77.3588ZM25.2407 77.6228C24.4414 77.6228 23.7447 77.4688 23.1507 77.1608C22.5567 76.8528 22.1021 76.4348 21.7867 75.9068C21.4787 75.3788 21.3247 74.7885 21.3247 74.1358C21.3247 73.4245 21.5044 72.7938 21.8637 72.2438C22.2304 71.6938 22.7291 71.2648 23.3597 70.9568C23.9977 70.6488 24.7164 70.4948 25.5157 70.4948C25.8751 70.4948 26.2161 70.5315 26.5387 70.6048C26.8687 70.6708 27.1364 70.7662 27.3417 70.8908C27.4004 70.9275 27.4334 70.9605 27.4407 70.9898C27.4554 71.0118 27.4664 71.0632 27.4737 71.1438L27.6057 72.3758C27.6057 72.3978 27.5837 72.4125 27.5397 72.4198C27.5031 72.4198 27.4811 72.4088 27.4737 72.3868C27.3124 71.8588 27.0191 71.4518 26.5937 71.1658C26.1757 70.8798 25.6587 70.7368 25.0427 70.7368C24.1187 70.7368 23.4037 71.0045 22.8977 71.5398C22.3917 72.0752 22.1387 72.8085 22.1387 73.7398C22.1387 74.4512 22.2817 75.0892 22.5677 75.6538C22.8611 76.2112 23.2644 76.6475 23.7777 76.9628C24.2911 77.2782 24.8667 77.4358 25.5047 77.4358C25.8787 77.4358 26.1684 77.4028 26.3737 77.3368C26.5791 77.2708 26.7294 77.1425 26.8247 76.9518C26.9201 76.7612 26.9677 76.4788 26.9677 76.1048C26.9677 75.7235 26.9421 75.4595 26.8907 75.3128C26.8467 75.1588 26.7404 75.0562 26.5717 75.0048C26.4104 74.9535 26.1281 74.9278 25.7247 74.9278C25.6807 74.9278 25.6587 74.8985 25.6587 74.8398C25.6587 74.8178 25.6624 74.7995 25.6697 74.7848C25.6844 74.7628 25.6991 74.7518 25.7137 74.7518C26.2857 74.7885 26.7477 74.8068 27.0997 74.8068C27.4444 74.8068 27.8037 74.7958 28.1777 74.7738C28.1924 74.7738 28.2034 74.7848 28.2107 74.8068C28.2254 74.8215 28.2327 74.8362 28.2327 74.8508C28.2327 74.9022 28.2144 74.9278 28.1777 74.9278C28.0017 74.9205 27.8771 74.9462 27.8037 75.0048C27.7304 75.0562 27.6827 75.1662 27.6607 75.3348C27.6387 75.5035 27.6277 75.7968 27.6277 76.2148C27.6277 76.5448 27.6387 76.7795 27.6607 76.9188C27.6901 77.0582 27.7047 77.1462 27.7047 77.1828C27.7047 77.2268 27.6974 77.2562 27.6827 77.2708C27.6681 77.2855 27.6351 77.3002 27.5837 77.3148C26.6964 77.5202 25.9154 77.6228 25.2407 77.6228ZM29.9583 70.8688L30.2113 70.8908V76.2918C30.2113 76.6732 30.2773 76.9482 30.4093 77.1168C30.5486 77.2782 30.7686 77.3588 31.0693 77.3588C31.0913 77.3588 31.1023 77.3808 31.1023 77.4248C31.1023 77.4688 31.0913 77.4908 31.0693 77.4908C30.8859 77.4908 30.7466 77.4872 30.6513 77.4798L30.1013 77.4688L29.5403 77.4798C29.4376 77.4872 29.2873 77.4908 29.0893 77.4908C29.0746 77.4908 29.0673 77.4688 29.0673 77.4248C29.0673 77.3808 29.0746 77.3588 29.0893 77.3588C29.4046 77.3588 29.6283 77.2782 29.7603 77.1168C29.8923 76.9482 29.9583 76.6732 29.9583 76.2918V70.8688ZM35.5023 77.6228C35.5023 77.6375 35.4839 77.6485 35.4473 77.6558C35.4106 77.6632 35.3849 77.6595 35.3703 77.6448L30.3103 71.5178C30.0756 71.2318 29.8593 71.0338 29.6613 70.9238C29.4706 70.8065 29.2799 70.7478 29.0893 70.7478C29.0673 70.7478 29.0563 70.7258 29.0563 70.6818C29.0563 70.6378 29.0673 70.6158 29.0893 70.6158L29.4963 70.6268C29.5843 70.6342 29.7053 70.6378 29.8593 70.6378C30.0206 70.6378 30.1526 70.6342 30.2553 70.6268C30.3579 70.6195 30.4386 70.6158 30.4973 70.6158C30.5486 70.6158 30.5889 70.6305 30.6183 70.6598C30.6549 70.6818 30.6953 70.7332 30.7393 70.8138C30.8273 70.9458 30.9189 71.0705 31.0143 71.1878L35.4143 76.5888L35.5023 77.6228ZM35.5023 77.6228L35.2493 77.2818V71.8258C35.2493 71.4445 35.1833 71.1695 35.0513 71.0008C34.9266 70.8322 34.7139 70.7478 34.4133 70.7478C34.3986 70.7478 34.3913 70.7258 34.3913 70.6818C34.3913 70.6378 34.3986 70.6158 34.4133 70.6158L34.8423 70.6268C35.0623 70.6415 35.2419 70.6488 35.3813 70.6488C35.5133 70.6488 35.6966 70.6415 35.9313 70.6268L36.3823 70.6158C36.4043 70.6158 36.4153 70.6378 36.4153 70.6818C36.4153 70.7258 36.4043 70.7478 36.3823 70.7478C36.0743 70.7478 35.8506 70.8322 35.7113 71.0008C35.5719 71.1695 35.5023 71.4445 35.5023 71.8258V77.6228ZM40.6564 77.6228C39.9744 77.6228 39.3658 77.4652 38.8304 77.1498C38.3024 76.8272 37.8918 76.3945 37.5984 75.8518C37.3124 75.3018 37.1694 74.7042 37.1694 74.0588C37.1694 73.3035 37.3601 72.6582 37.7414 72.1228C38.1228 71.5802 38.6104 71.1732 39.2044 70.9018C39.8058 70.6305 40.4181 70.4948 41.0414 70.4948C41.7381 70.4948 42.3504 70.6598 42.8784 70.9898C43.4064 71.3125 43.8098 71.7415 44.0884 72.2768C44.3744 72.8122 44.5174 73.3805 44.5174 73.9818C44.5174 74.6492 44.3414 75.2615 43.9894 75.8188C43.6374 76.3762 43.1644 76.8162 42.5704 77.1388C41.9838 77.4615 41.3458 77.6228 40.6564 77.6228ZM41.0414 77.3918C41.5401 77.3918 41.9874 77.2708 42.3834 77.0288C42.7868 76.7868 43.1021 76.4348 43.3294 75.9728C43.5641 75.5035 43.6814 74.9425 43.6814 74.2898C43.6814 73.6005 43.5531 72.9882 43.2964 72.4528C43.0398 71.9175 42.6768 71.4995 42.2074 71.1988C41.7454 70.8982 41.2028 70.7478 40.5794 70.7478C39.7728 70.7478 39.1421 71.0082 38.6874 71.5288C38.2328 72.0495 38.0054 72.7645 38.0054 73.6738C38.0054 74.3632 38.1338 74.9938 38.3904 75.5658C38.6471 76.1305 39.0064 76.5778 39.4684 76.9078C39.9304 77.2305 40.4548 77.3918 41.0414 77.3918ZM47.0873 76.5558C47.0873 76.7685 47.1093 76.9225 47.1533 77.0178C47.1973 77.1132 47.278 77.1792 47.3953 77.2158C47.5127 77.2452 47.7033 77.2598 47.9673 77.2598H49.1663C49.5843 77.2598 49.918 77.1315 50.1673 76.8748C50.4167 76.6182 50.5817 76.2625 50.6623 75.8078C50.6623 75.7858 50.6807 75.7785 50.7173 75.7858C50.7613 75.7858 50.7833 75.7968 50.7833 75.8188C50.7173 76.4275 50.6843 76.9298 50.6843 77.3258C50.6843 77.3845 50.6733 77.4285 50.6513 77.4578C50.6293 77.4798 50.5853 77.4908 50.5193 77.4908H45.4373C45.4227 77.4908 45.4153 77.4688 45.4153 77.4248C45.4153 77.3808 45.4227 77.3588 45.4373 77.3588C45.716 77.3588 45.9177 77.3405 46.0423 77.3038C46.1743 77.2672 46.2623 77.1975 46.3063 77.0948C46.3503 76.9848 46.3723 76.8198 46.3723 76.5998V71.5068C46.3723 71.2868 46.3503 71.1255 46.3063 71.0228C46.2623 70.9202 46.1743 70.8505 46.0423 70.8138C45.9177 70.7698 45.716 70.7478 45.4373 70.7478C45.4227 70.7478 45.4153 70.7258 45.4153 70.6818C45.4153 70.6378 45.4227 70.6158 45.4373 70.6158L45.9763 70.6268C46.2843 70.6415 46.5337 70.6488 46.7243 70.6488C46.9297 70.6488 47.1863 70.6415 47.4943 70.6268L48.0223 70.6158C48.0443 70.6158 48.0553 70.6378 48.0553 70.6818C48.0553 70.7258 48.0443 70.7478 48.0223 70.7478C47.751 70.7478 47.5493 70.7698 47.4173 70.8138C47.2853 70.8505 47.1973 70.9238 47.1533 71.0338C47.1093 71.1365 47.0873 71.2978 47.0873 71.5178V76.5558ZM53.1066 76.5998C53.1066 76.8272 53.1286 76.9922 53.1726 77.0948C53.2166 77.1975 53.3009 77.2672 53.4256 77.3038C53.5576 77.3405 53.7629 77.3588 54.0416 77.3588C54.0636 77.3588 54.0746 77.3808 54.0746 77.4248C54.0746 77.4688 54.0636 77.4908 54.0416 77.4908C53.8216 77.4908 53.6456 77.4872 53.5136 77.4798L52.7326 77.4688L51.9736 77.4798C51.8416 77.4872 51.6619 77.4908 51.4346 77.4908C51.4126 77.4908 51.4016 77.4688 51.4016 77.4248C51.4016 77.3808 51.4126 77.3588 51.4346 77.3588C51.7132 77.3588 51.9149 77.3405 52.0396 77.3038C52.1716 77.2672 52.2596 77.1975 52.3036 77.0948C52.3549 76.9848 52.3806 76.8198 52.3806 76.5998V71.5068C52.3806 71.2868 52.3549 71.1255 52.3036 71.0228C52.2596 70.9202 52.1716 70.8505 52.0396 70.8138C51.9149 70.7698 51.7132 70.7478 51.4346 70.7478C51.4126 70.7478 51.4016 70.7258 51.4016 70.6818C51.4016 70.6378 51.4126 70.6158 51.4346 70.6158L51.9736 70.6268C52.2816 70.6415 52.5346 70.6488 52.7326 70.6488C52.9526 70.6488 53.2166 70.6415 53.5246 70.6268L54.0416 70.6158C54.0636 70.6158 54.0746 70.6378 54.0746 70.6818C54.0746 70.7258 54.0636 70.7478 54.0416 70.7478C53.7702 70.7478 53.5686 70.7698 53.4366 70.8138C53.3046 70.8578 53.2166 70.9348 53.1726 71.0448C53.1286 71.1475 53.1066 71.3088 53.1066 71.5288V76.5998ZM57.0779 73.6188H59.3439L59.4209 73.8498H56.9129L57.0779 73.6188ZM62.2589 77.3588C62.2882 77.3588 62.3029 77.3808 62.3029 77.4248C62.3029 77.4688 62.2882 77.4908 62.2589 77.4908C62.1196 77.4908 61.9032 77.4835 61.6099 77.4688C61.3166 77.4542 61.1039 77.4468 60.9719 77.4468C60.8106 77.4468 60.6052 77.4542 60.3559 77.4688C60.1212 77.4835 59.9416 77.4908 59.8169 77.4908C59.7876 77.4908 59.7729 77.4688 59.7729 77.4248C59.7729 77.3808 59.7876 77.3588 59.8169 77.3588C60.0956 77.3588 60.2936 77.3332 60.4109 77.2818C60.5356 77.2305 60.5979 77.1388 60.5979 77.0068C60.5979 76.8968 60.5539 76.7428 60.4659 76.5448L58.0239 71.3858L58.2989 71.0448L56.1649 76.0938C56.0622 76.3432 56.0109 76.5485 56.0109 76.7098C56.0109 77.1425 56.3702 77.3588 57.0889 77.3588C57.1256 77.3588 57.1439 77.3808 57.1439 77.4248C57.1439 77.4688 57.1256 77.4908 57.0889 77.4908C56.9569 77.4908 56.7662 77.4835 56.5169 77.4688C56.2382 77.4542 55.9962 77.4468 55.7909 77.4468C55.6002 77.4468 55.3802 77.4542 55.1309 77.4688C54.9109 77.4835 54.7276 77.4908 54.5809 77.4908C54.5442 77.4908 54.5259 77.4688 54.5259 77.4248C54.5259 77.3808 54.5442 77.3588 54.5809 77.3588C54.7862 77.3588 54.9586 77.3222 55.0979 77.2488C55.2446 77.1682 55.3802 77.0325 55.5049 76.8418C55.6369 76.6438 55.7799 76.3615 55.9339 75.9948L58.2549 70.5168C58.2696 70.4948 58.2952 70.4838 58.3319 70.4838C58.3686 70.4838 58.3906 70.4948 58.3979 70.5168L60.9939 75.9838C61.2432 76.5265 61.4559 76.8932 61.6319 77.0838C61.8079 77.2672 62.0169 77.3588 62.2589 77.3588Z" fill="#FBFAF8"/>
<path d="M23.4057 84.6949C23.1057 84.6949 22.8477 84.6289 22.6317 84.4969C22.4197 84.3609 22.2597 84.1849 22.1517 83.9689C22.0437 83.7529 21.9897 83.5189 21.9897 83.2669C21.9897 82.9909 22.0557 82.7389 22.1877 82.5109C22.3237 82.2789 22.5057 82.0949 22.7337 81.9589C22.9617 81.8229 23.2097 81.7549 23.4777 81.7549C23.7657 81.7549 23.9837 81.8329 24.1317 81.9889C24.2797 82.1409 24.3537 82.3429 24.3537 82.5949C24.3537 82.6389 24.3477 82.6709 24.3357 82.6909C24.3277 82.7109 24.3097 82.7209 24.2817 82.7209H23.7837C23.7877 82.6889 23.7897 82.6429 23.7897 82.5829C23.7897 82.3589 23.7457 82.1889 23.6577 82.0729C23.5737 81.9529 23.4477 81.8929 23.2797 81.8929C23.0557 81.8929 22.8757 81.9969 22.7397 82.2049C22.6077 82.4089 22.5417 82.6829 22.5417 83.0269C22.5417 83.4629 22.6417 83.8149 22.8417 84.0829C23.0417 84.3469 23.3197 84.4789 23.6757 84.4789C23.7797 84.4789 23.8857 84.4649 23.9937 84.4369C24.1057 84.4049 24.2057 84.3589 24.2937 84.2989H24.2997C24.3117 84.2989 24.3217 84.3069 24.3297 84.3229C24.3417 84.3349 24.3437 84.3469 24.3357 84.3589C24.0517 84.5829 23.7417 84.6949 23.4057 84.6949ZM22.2957 82.6249L24.0117 82.5949V82.7209L22.3017 82.7269L22.2957 82.6249ZM25.2911 82.2709C25.2911 82.4349 25.3491 82.5669 25.4651 82.6669C25.5811 82.7669 25.7531 82.8769 25.9811 82.9969C26.1531 83.0849 26.2891 83.1629 26.3891 83.2309C26.4931 83.2989 26.5811 83.3849 26.6531 83.4889C26.7251 83.5929 26.7611 83.7149 26.7611 83.8549C26.7611 84.0109 26.7171 84.1529 26.6291 84.2809C26.5411 84.4089 26.4171 84.5109 26.2571 84.5869C26.0971 84.6589 25.9151 84.6949 25.7111 84.6949C25.5391 84.6949 25.3751 84.6729 25.2191 84.6289C25.0631 84.5889 24.9471 84.5389 24.8711 84.4789C24.8391 84.4629 24.8211 84.4209 24.8171 84.3529L24.7811 83.7049V83.6989C24.7811 83.6829 24.7911 83.6749 24.8111 83.6749C24.8311 83.6709 24.8451 83.6769 24.8531 83.6929C24.9611 83.9329 25.0971 84.1389 25.2611 84.3109C25.4251 84.4829 25.6091 84.5689 25.8131 84.5689C25.9371 84.5689 26.0431 84.5309 26.1311 84.4549C26.2191 84.3789 26.2631 84.2649 26.2631 84.1129C26.2631 83.9289 26.2011 83.7809 26.0771 83.6689C25.9571 83.5529 25.7791 83.4329 25.5431 83.3089C25.3831 83.2209 25.2551 83.1449 25.1591 83.0809C25.0671 83.0129 24.9871 82.9309 24.9191 82.8349C24.8551 82.7389 24.8231 82.6249 24.8231 82.4929C24.8231 82.2609 24.9191 82.0789 25.1111 81.9469C25.3071 81.8109 25.5431 81.7429 25.8191 81.7429C25.9391 81.7429 26.0611 81.7569 26.1851 81.7849C26.3131 81.8089 26.4211 81.8409 26.5091 81.8809C26.5451 81.8969 26.5691 81.9129 26.5811 81.9289C26.5931 81.9449 26.5991 81.9669 26.5991 81.9949L26.6111 82.5469C26.6111 82.5629 26.6011 82.5729 26.5811 82.5769C26.5611 82.5809 26.5471 82.5769 26.5391 82.5649C26.5151 82.4849 26.4671 82.3909 26.3951 82.2829C26.3271 82.1749 26.2331 82.0789 26.1131 81.9949C25.9971 81.9069 25.8651 81.8629 25.7171 81.8629C25.5771 81.8629 25.4711 81.9009 25.3991 81.9769C25.3271 82.0529 25.2911 82.1509 25.2911 82.2709ZM28.2858 84.6949C28.0498 84.6949 27.8518 84.6309 27.6918 84.5029C27.5318 84.3749 27.4518 84.1629 27.4518 83.8669V82.2949C27.4518 82.1749 27.4298 82.0969 27.3858 82.0609C27.3458 82.0249 27.2618 82.0069 27.1338 82.0069C27.1218 82.0069 27.1158 81.9909 27.1158 81.9589C27.1158 81.9269 27.1218 81.9109 27.1338 81.9109C27.3258 81.9109 27.4898 81.8689 27.6258 81.7849C27.7618 81.6969 27.8458 81.5829 27.8778 81.4429C27.8778 81.4309 27.8898 81.4249 27.9138 81.4249C27.9258 81.4249 27.9378 81.4289 27.9498 81.4369C27.9618 81.4409 27.9678 81.4449 27.9678 81.4489V83.7109C27.9678 84.2109 28.1598 84.4609 28.5438 84.4609C28.7558 84.4609 28.9418 84.4069 29.1018 84.2989L29.1138 84.2929C29.1298 84.2929 29.1398 84.3009 29.1438 84.3169C29.1518 84.3329 29.1498 84.3449 29.1378 84.3529C28.9738 84.4769 28.8278 84.5649 28.6998 84.6169C28.5758 84.6689 28.4378 84.6949 28.2858 84.6949ZM28.9578 82.1389C28.6578 82.0669 28.2718 82.0309 27.7998 82.0309V81.8929C28.0798 81.8929 28.4718 81.8729 28.9758 81.8329C28.9878 81.8329 28.9978 81.8469 29.0058 81.8749C29.0138 81.8989 29.0178 81.9309 29.0178 81.9709C29.0178 82.0109 29.0098 82.0509 28.9938 82.0909C28.9818 82.1269 28.9698 82.1429 28.9578 82.1389ZM30.8496 84.5509C31.2416 84.1469 31.5276 83.8429 31.7076 83.6389C31.8916 83.4309 32.0396 83.2309 32.1516 83.0389C32.2676 82.8429 32.3256 82.6589 32.3256 82.4869C32.3256 82.3229 32.2776 82.1829 32.1816 82.0669C32.0856 81.9469 31.9496 81.8869 31.7736 81.8869C31.5896 81.8869 31.4356 81.9549 31.3116 82.0909C31.1916 82.2269 31.0816 82.4249 30.9816 82.6849C30.9816 82.6929 30.9736 82.6969 30.9576 82.6969C30.9456 82.6969 30.9336 82.6949 30.9216 82.6909C30.9096 82.6829 30.9056 82.6769 30.9096 82.6729L31.1616 81.6829C31.1656 81.6749 31.1776 81.6729 31.1976 81.6769C31.2216 81.6809 31.2316 81.6869 31.2276 81.6949C31.2236 81.7149 31.2216 81.7389 31.2216 81.7669C31.2216 81.8389 31.2536 81.8749 31.3176 81.8749C31.3656 81.8749 31.4316 81.8589 31.5156 81.8269C31.6276 81.7949 31.7176 81.7729 31.7856 81.7609C31.8576 81.7449 31.9396 81.7369 32.0316 81.7369C32.2876 81.7369 32.4936 81.8069 32.6496 81.9469C32.8056 82.0829 32.8836 82.2609 32.8836 82.4809C32.8836 82.6169 32.8516 82.7429 32.7876 82.8589C32.7236 82.9709 32.6396 83.0749 32.5356 83.1709C32.4356 83.2669 32.2896 83.3949 32.0976 83.5549C31.8096 83.7869 31.5776 83.9909 31.4016 84.1669C31.3896 84.1789 31.3856 84.1889 31.3896 84.1969C31.3976 84.2049 31.4096 84.2089 31.4256 84.2089C31.9576 84.2089 32.3236 84.2029 32.5236 84.1909C32.7276 84.1789 32.8656 84.1509 32.9376 84.1069C33.0096 84.0629 33.0616 83.9849 33.0936 83.8729C33.0976 83.8609 33.1096 83.8569 33.1296 83.8609C33.1496 83.8649 33.1596 83.8709 33.1596 83.8789L33.0936 84.5569C33.0936 84.5729 33.0876 84.5889 33.0756 84.6049C33.0676 84.6169 33.0556 84.6229 33.0396 84.6229H30.8916C30.8716 84.6229 30.8556 84.6149 30.8436 84.5989C30.8356 84.5829 30.8376 84.5669 30.8496 84.5509ZM34.9789 84.7009C34.7029 84.7009 34.4569 84.6389 34.2409 84.5149C34.0249 84.3869 33.8549 84.2109 33.7309 83.9869C33.6109 83.7589 33.5509 83.4989 33.5509 83.2069C33.5509 82.9229 33.6109 82.6709 33.7309 82.4509C33.8549 82.2309 34.0249 82.0609 34.2409 81.9409C34.4609 81.8169 34.7089 81.7549 34.9849 81.7549C35.2569 81.7549 35.4989 81.8169 35.7109 81.9409C35.9269 82.0649 36.0929 82.2389 36.2089 82.4629C36.3289 82.6829 36.3889 82.9369 36.3889 83.2249C36.3889 83.5129 36.3289 83.7689 36.2089 83.9929C36.0889 84.2169 35.9209 84.3909 35.7049 84.5149C35.4929 84.6389 35.2509 84.7009 34.9789 84.7009ZM35.0509 84.5869C35.2949 84.5869 35.4749 84.4729 35.5909 84.2449C35.7109 84.0169 35.7709 83.7009 35.7709 83.2969C35.7709 82.9809 35.7329 82.7149 35.6569 82.4989C35.5809 82.2829 35.4769 82.1229 35.3449 82.0189C35.2169 81.9149 35.0749 81.8629 34.9189 81.8629C34.6789 81.8629 34.4909 81.9829 34.3549 82.2229C34.2189 82.4629 34.1509 82.7769 34.1509 83.1649C34.1509 83.4409 34.1869 83.6869 34.2589 83.9029C34.3349 84.1149 34.4409 84.2829 34.5769 84.4069C34.7129 84.5269 34.8709 84.5869 35.0509 84.5869ZM36.8262 84.5509C37.2182 84.1469 37.5042 83.8429 37.6842 83.6389C37.8682 83.4309 38.0162 83.2309 38.1282 83.0389C38.2442 82.8429 38.3022 82.6589 38.3022 82.4869C38.3022 82.3229 38.2542 82.1829 38.1582 82.0669C38.0622 81.9469 37.9262 81.8869 37.7502 81.8869C37.5662 81.8869 37.4122 81.9549 37.2882 82.0909C37.1682 82.2269 37.0582 82.4249 36.9582 82.6849C36.9582 82.6929 36.9502 82.6969 36.9342 82.6969C36.9222 82.6969 36.9102 82.6949 36.8982 82.6909C36.8862 82.6829 36.8822 82.6769 36.8862 82.6729L37.1382 81.6829C37.1422 81.6749 37.1542 81.6729 37.1742 81.6769C37.1982 81.6809 37.2082 81.6869 37.2042 81.6949C37.2002 81.7149 37.1982 81.7389 37.1982 81.7669C37.1982 81.8389 37.2302 81.8749 37.2942 81.8749C37.3422 81.8749 37.4082 81.8589 37.4922 81.8269C37.6042 81.7949 37.6942 81.7729 37.7622 81.7609C37.8342 81.7449 37.9162 81.7369 38.0082 81.7369C38.2642 81.7369 38.4702 81.8069 38.6262 81.9469C38.7822 82.0829 38.8602 82.2609 38.8602 82.4809C38.8602 82.6169 38.8282 82.7429 38.7642 82.8589C38.7002 82.9709 38.6162 83.0749 38.5122 83.1709C38.4122 83.2669 38.2662 83.3949 38.0742 83.5549C37.7862 83.7869 37.5542 83.9909 37.3782 84.1669C37.3662 84.1789 37.3622 84.1889 37.3662 84.1969C37.3742 84.2049 37.3862 84.2089 37.4022 84.2089C37.9342 84.2089 38.3002 84.2029 38.5002 84.1909C38.7042 84.1789 38.8422 84.1509 38.9142 84.1069C38.9862 84.0629 39.0382 83.9849 39.0702 83.8729C39.0742 83.8609 39.0862 83.8569 39.1062 83.8609C39.1262 83.8649 39.1362 83.8709 39.1362 83.8789L39.0702 84.5569C39.0702 84.5729 39.0642 84.5889 39.0522 84.6049C39.0442 84.6169 39.0322 84.6229 39.0162 84.6229H36.8682C36.8482 84.6229 36.8322 84.6149 36.8202 84.5989C36.8122 84.5829 36.8142 84.5669 36.8262 84.5509ZM39.4375 84.5749C39.4175 84.5749 39.4035 84.5669 39.3955 84.5509C39.3875 84.5349 39.3875 84.5189 39.3955 84.5029L41.4055 81.7489C41.4135 81.7409 41.4275 81.7369 41.4475 81.7369C41.4835 81.7369 41.5015 81.7509 41.5015 81.7789V85.4209C41.5015 85.4609 41.4855 85.4889 41.4535 85.5049L41.0575 85.6969C41.0335 85.7049 41.0215 85.7089 41.0215 85.7089C41.0095 85.7089 41.0035 85.6929 41.0035 85.6609V82.4809L41.3755 82.1029L39.7435 84.3349C39.7275 84.3629 39.7375 84.3769 39.7735 84.3769C40.5175 84.3769 41.2395 84.3649 41.9395 84.3409C41.9555 84.3409 41.9635 84.3809 41.9635 84.4609C41.9635 84.5009 41.9595 84.5369 41.9515 84.5689C41.9475 84.6009 41.9415 84.6169 41.9335 84.6169C41.6215 84.6009 41.2855 84.5909 40.9255 84.5869C40.5695 84.5789 40.0735 84.5749 39.4375 84.5749Z" fill="#FBFAF8"/>
</g>
<defs>
<clipPath id="clip0_112_500">
<rect width="66" height="88" fill="white"/>
</clipPath>
</defs>
</svg>
