<?xml version="1.0" encoding="UTF-8"?>
<svg xmlns="http://www.w3.org/2000/svg" viewBox="0 0 469 466">
  <title>illum-logo</title>
  <g id="Lag_1" data-name="Lag 1">
    <rect width="469" height="466" style="fill:#fff"></rect>
  </g>
  <g id="Lag_6" data-name="Lag 6">
    <rect x="0.32" y="0.13" width="50.88" height="465.75"></rect>
  </g>
  <g id="Lag_4" data-name="Lag 4">
    <polygon points="469 465.87 418.12 465.87 418.12 359.97 362.35 415.75 305.6 359 305.6 465.87 254.72 465.87 254.72 236.16 362.35 343.79 469 237.14 469 465.87"></polygon>
  </g>
  <g id="Lag_5" data-name="Lag 5">
    <path d="M871.37,988.3a106.29,106.29,0,0,1-61.94-19.9c-28-19.89-44.71-52.86-44.71-88.18V768.13H815.6V880.22c0,18.88,8.71,36.34,23.3,46.7a55.5,55.5,0,0,0,60.76,2.77c17-10,27.48-29,27.48-49.58v-112H978v112c0,38.59-20.15,74.39-52.59,93.45a106.92,106.92,0,0,1-51.5,14.71Z" transform="translate(-510 -768)"></path>
  </g>
  <g id="Lag_3" data-name="Lag 3">
    <polygon points="209.71 465.87 96.21 465.87 96.21 252.57 147.09 252.57 147.09 414.99 209.71 414.99 209.71 465.87"></polygon>
  </g>
  <g id="Lag_2" data-name="Lag 2">
    <polygon points="209.71 213.43 96.21 213.43 96.21 0.13 147.09 0.13 147.09 162.55 209.71 162.55 209.71 213.43"></polygon>
  </g>
</svg>
